<svg xmlns="http://www.w3.org/2000/svg" width="233.354" height="36.66" viewBox="0 0 233.354 36.66"><path d="M13.1-1.04a1.4,1.4,0,0,1-.468.728,1.179,1.179,0,0,1-.78.312H8.528a1.179,1.179,0,0,1-.78-.312A1.4,1.4,0,0,1,7.28-1.04L0-35.412a.781.781,0,0,1,.156-.728.839.839,0,0,1,.676-.312H3.588a1.179,1.179,0,0,1,.78.312,1.4,1.4,0,0,1,.468.728L9.984-11.024q.1.416.208.416t.208-.416l5.252-24.388a1.4,1.4,0,0,1,.468-.728,1.179,1.179,0,0,1,.78-.312h2.756a.839.839,0,0,1,.676.312.781.781,0,0,1,.156.728l-3.016,14.04a4.375,4.375,0,0,0-.1,1.04,4.375,4.375,0,0,0,.1,1.04l1.768,8.268q.1.416.208.416t.208-.416l5.252-24.388a1.4,1.4,0,0,1,.468-.728,1.179,1.179,0,0,1,.78-.312h2.756a.839.839,0,0,1,.676.312.781.781,0,0,1,.156.728L22.36-1.04a1.4,1.4,0,0,1-.468.728,1.179,1.179,0,0,1-.78.312H17.784A1.179,1.179,0,0,1,17-.312a1.4,1.4,0,0,1-.468-.728L15.08-8.008q-.1-.416-.208-.416t-.208.416L13.156-1.04ZM45.76-4.732a1,1,0,0,1,.728.312,1,1,0,0,1,.312.728V-1.04a1,1,0,0,1-.312.728A1,1,0,0,1,45.76,0H34.112a1,1,0,0,1-.728-.312,1,1,0,0,1-.312-.728V-3.692a1,1,0,0,1,.312-.728,1,1,0,0,1,.728-.312ZM42.848-36.3a4.336,4.336,0,0,1,1.872.417,4.93,4.93,0,0,1,1.534,1.12,5.51,5.51,0,0,1,1.04,1.641,5.236,5.236,0,0,1,.39,2.031v18.806a5.236,5.236,0,0,1-.39,2.031,5.51,5.51,0,0,1-1.04,1.641,4.93,4.93,0,0,1-1.534,1.12,4.336,4.336,0,0,1-1.872.417h-5.72a4.336,4.336,0,0,1-1.872-.417,4.93,4.93,0,0,1-1.534-1.12,5.51,5.51,0,0,1-1.04-1.641,5.236,5.236,0,0,1-.39-2.031V-31.087a5.236,5.236,0,0,1,.39-2.031,5.51,5.51,0,0,1,1.04-1.641,4.93,4.93,0,0,1,1.534-1.12,4.336,4.336,0,0,1,1.872-.417Zm.1,5.2v-.26q-.052-.1-.416-.156a5.523,5.523,0,0,0-.78-.052H38.168a4.984,4.984,0,0,0-.754.052q-.338.052-.39.156v19.24q.052.1.416.156a5.522,5.522,0,0,0,.78.052h3.588a4.985,4.985,0,0,0,.754-.052q.338-.052.39-.156V-31.1Zm20.7,26.364a1,1,0,0,1,.728.312,1,1,0,0,1,.312.728V-1.04a1,1,0,0,1-.312.728A1,1,0,0,1,63.648,0H52a1,1,0,0,1-.728-.312,1,1,0,0,1-.312-.728V-3.692a1,1,0,0,1,.312-.728A1,1,0,0,1,52-4.732ZM60.736-36.3a4.336,4.336,0,0,1,1.872.417,4.93,4.93,0,0,1,1.534,1.12,5.51,5.51,0,0,1,1.04,1.641,5.236,5.236,0,0,1,.39,2.031v18.806a5.236,5.236,0,0,1-.39,2.031,5.51,5.51,0,0,1-1.04,1.641,4.93,4.93,0,0,1-1.534,1.12,4.336,4.336,0,0,1-1.872.417h-5.72a4.336,4.336,0,0,1-1.872-.417,4.93,4.93,0,0,1-1.534-1.12,5.51,5.51,0,0,1-1.04-1.641,5.236,5.236,0,0,1-.39-2.031V-31.087a5.236,5.236,0,0,1,.39-2.031,5.51,5.51,0,0,1,1.04-1.641,4.93,4.93,0,0,1,1.534-1.12,4.336,4.336,0,0,1,1.872-.417Zm.1,5.2v-.26q-.052-.1-.416-.156a5.523,5.523,0,0,0-.78-.052H56.056a4.984,4.984,0,0,0-.754.052q-.338.052-.39.156v19.24q.052.1.416.156a5.522,5.522,0,0,0,.78.052H59.7a4.985,4.985,0,0,0,.754-.052q.338-.052.39-.156V-31.1Zm20.28-5.252a5.088,5.088,0,0,1,2.158.468,5.439,5.439,0,0,1,1.768,1.3,6.429,6.429,0,0,1,1.2,1.924,6.177,6.177,0,0,1,.442,2.34V-5.98a6.177,6.177,0,0,1-.442,2.34,6.429,6.429,0,0,1-1.2,1.924,5.439,5.439,0,0,1-1.768,1.3A5.088,5.088,0,0,1,81.12.052h-11.8a1,1,0,0,1-.728-.312,1,1,0,0,1-.312-.728v-34.32a1,1,0,0,1,.312-.728,1,1,0,0,1,.728-.312Zm.832,6.138a1.46,1.46,0,0,0-.26-.912.729.729,0,0,0-.572-.339H74.048a1,1,0,0,0-.728.312,1,1,0,0,0-.312.729v24.7a1,1,0,0,0,.312.729,1,1,0,0,0,.728.312H81.12a.729.729,0,0,0,.572-.339,1.46,1.46,0,0,0,.26-.912ZM94.8-.1a5.088,5.088,0,0,1-2.158-.468,5.439,5.439,0,0,1-1.768-1.3,6.429,6.429,0,0,1-1.2-1.924,6.177,6.177,0,0,1-.442-2.34V-30.368a6.177,6.177,0,0,1,.442-2.34,6.429,6.429,0,0,1,1.2-1.924,5.439,5.439,0,0,1,1.768-1.3A5.088,5.088,0,0,1,94.8-36.4h7.28a5.088,5.088,0,0,1,2.158.468,5.439,5.439,0,0,1,1.768,1.3,6.429,6.429,0,0,1,1.2,1.924,6.177,6.177,0,0,1,.442,2.34v5.356a1,1,0,0,1-.312.728,1,1,0,0,1-.728.312h-2.652a1,1,0,0,1-.728-.314,1.008,1.008,0,0,1-.312-.733v-5.393a1.472,1.472,0,0,0-.26-.916.728.728,0,0,0-.572-.34H94.8a.729.729,0,0,0-.572.339,1.465,1.465,0,0,0-.26.914V-6.089a1.465,1.465,0,0,0,.26.914.729.729,0,0,0,.572.339h7.28a.728.728,0,0,0,.572-.341,1.477,1.477,0,0,0,.26-.918V-9.767a1.011,1.011,0,0,1,.312-.734.993.993,0,0,1,.728-.315H106.6a1,1,0,0,1,.728.312,1,1,0,0,1,.312.728v3.64A6.177,6.177,0,0,1,107.2-3.8,6.429,6.429,0,0,1,106-1.872a5.439,5.439,0,0,1-1.768,1.3,5.088,5.088,0,0,1-2.158.468Zm33.332-.622a.634.634,0,0,1,.026.675.679.679,0,0,1-.6.26h-3.312a1.722,1.722,0,0,1-.867-.26,1.631,1.631,0,0,1-.657-.676l-5.3-9.88a1.668,1.668,0,0,0-.624-.676,1.559,1.559,0,0,0-.832-.26.838.838,0,0,0-.676.312,1.1,1.1,0,0,0-.26.728v9.62a1,1,0,0,1-.312.728,1,1,0,0,1-.728.312h-2.652a1,1,0,0,1-.728-.312,1,1,0,0,1-.312-.727V-35.154a.994.994,0,0,1,.313-.727,1,1,0,0,1,.73-.312h9.806a5.92,5.92,0,0,1,2.347.467,6.327,6.327,0,0,1,1.93,1.272,5.862,5.862,0,0,1,1.3,1.87,5.66,5.66,0,0,1,.47,2.311v12.825a5.456,5.456,0,0,1-1.105,3.35,6,6,0,0,1-2.84,2.1.993.993,0,0,0-.578.468.784.784,0,0,0,.051.727l5.408,9.97ZM122.46-30.264a1.086,1.086,0,0,0-.39-.858,1.417,1.417,0,0,0-.962-.338h-5.044a1,1,0,0,0-.728.312,1,1,0,0,0-.312.728v13.156a1,1,0,0,0,.312.728,1,1,0,0,0,.728.312h5.044a1.417,1.417,0,0,0,.962-.338,1.086,1.086,0,0,0,.39-.858Zm20.8,25.532a1,1,0,0,1,.728.312,1,1,0,0,1,.312.728V-1.04a1,1,0,0,1-.312.728A1,1,0,0,1,143.26,0H131.612a1,1,0,0,1-.728-.312,1,1,0,0,1-.312-.728V-3.692a1,1,0,0,1,.312-.728,1,1,0,0,1,.728-.312ZM131.976-7.124a1,1,0,0,1-.728-.312,1,1,0,0,1-.312-.728V-35.308a1,1,0,0,1,.312-.728,1,1,0,0,1,.728-.312h9.984a1,1,0,0,1,.728.312,1,1,0,0,1,.312.728v2.548a1,1,0,0,1-.312.728,1,1,0,0,1-.728.312h-5.252a1,1,0,0,0-.728.312,1,1,0,0,0-.312.728v8.632a1,1,0,0,0,.312.728,1,1,0,0,0,.728.312h2.5a1,1,0,0,1,.728.312,1,1,0,0,1,.312.728v2.652a1,1,0,0,1-.312.728,1,1,0,0,1-.728.312h-2.5a1,1,0,0,0-.728.312,1,1,0,0,0-.312.728v2.392a1,1,0,0,0,.312.728,1,1,0,0,0,.728.312h5.252a1,1,0,0,1,.728.312,1,1,0,0,1,.312.728v2.652a1,1,0,0,1-.312.728,1,1,0,0,1-.728.312h-9.984Zm32.6,2.392a1,1,0,0,1,.728.312,1,1,0,0,1,.312.728V-1.04a1,1,0,0,1-.312.728A1,1,0,0,1,164.58,0H147.836a1,1,0,0,1-.728-.312,1,1,0,0,1-.312-.728V-3.692a1,1,0,0,1,.312-.728,1,1,0,0,1,.728-.312ZM147.68-7.02A.838.838,0,0,1,147-7.332a.781.781,0,0,1-.156-.728l5.876-27.248a1.4,1.4,0,0,1,.468-.728,1.179,1.179,0,0,1,.78-.312h4.68a1.179,1.179,0,0,1,.78.312,1.4,1.4,0,0,1,.468.728L165.672-8.06a.781.781,0,0,1-.156.728.838.838,0,0,1-.676.312h-2.756a1.179,1.179,0,0,1-.78-.312,1.4,1.4,0,0,1-.468-.728l-.936-4.368a1.4,1.4,0,0,0-.468-.728,1.179,1.179,0,0,0-.78-.312h-4.784a1.179,1.179,0,0,0-.78.312,1.4,1.4,0,0,0-.468.728l-.936,4.368a1.4,1.4,0,0,1-.468.728,1.179,1.179,0,0,1-.78.312Zm6.4-12.116a.781.781,0,0,0,.156.728.838.838,0,0,0,.676.312h2.756a.838.838,0,0,0,.676-.312.781.781,0,0,0,.156-.728L156.52-28.5q-.1-.416-.208-.416t-.208.416Zm30,14.4a1,1,0,0,1,.728.312,1,1,0,0,1,.312.728V-1.04a1,1,0,0,1-.312.728A1,1,0,0,1,184.08,0H172.432a1,1,0,0,1-.728-.312,1,1,0,0,1-.312-.728V-3.692a1,1,0,0,1,.312-.728,1,1,0,0,1,.728-.312ZM186.108-36.3a1,1,0,0,1,.728.312,1,1,0,0,1,.312.728V-32.6a1,1,0,0,1-.312.728,1,1,0,0,1-.728.312h-4.94a1,1,0,0,0-.728.312,1,1,0,0,0-.312.728V-8.06a1,1,0,0,1-.312.728,1,1,0,0,1-.728.312h-2.652a1,1,0,0,1-.728-.312,1,1,0,0,1-.312-.728V-30.524a1,1,0,0,0-.312-.728,1,1,0,0,0-.728-.312h-4.94a1,1,0,0,1-.728-.312,1,1,0,0,1-.312-.728v-2.652a1,1,0,0,1,.312-.728,1,1,0,0,1,.728-.312H186.16Zm7.436,0a1,1,0,0,1,.728.312,1,1,0,0,1,.312.728V-.988a1,1,0,0,1-.312.728,1,1,0,0,1-.728.312h-2.652a1,1,0,0,1-.728-.312,1,1,0,0,1-.312-.728V-35.256a1,1,0,0,1,.312-.728,1,1,0,0,1,.728-.312Zm17,31.564a1,1,0,0,1,.728.312,1,1,0,0,1,.312.728V-1.04a1,1,0,0,1-.312.728,1,1,0,0,1-.728.312H198.9a1,1,0,0,1-.728-.312,1,1,0,0,1-.312-.728V-3.692a1,1,0,0,1,.312-.728,1,1,0,0,1,.728-.312ZM207.636-36.3a4.336,4.336,0,0,1,1.872.417,4.93,4.93,0,0,1,1.534,1.12,5.51,5.51,0,0,1,1.04,1.641,5.236,5.236,0,0,1,.39,2.031v18.806a5.236,5.236,0,0,1-.39,2.031,5.51,5.51,0,0,1-1.04,1.641,4.93,4.93,0,0,1-1.534,1.12,4.336,4.336,0,0,1-1.872.417h-5.72a4.336,4.336,0,0,1-1.872-.417,4.93,4.93,0,0,1-1.534-1.12,5.51,5.51,0,0,1-1.04-1.641,5.236,5.236,0,0,1-.39-2.031V-31.087a5.236,5.236,0,0,1,.39-2.031,5.51,5.51,0,0,1,1.04-1.641,4.93,4.93,0,0,1,1.534-1.12,4.336,4.336,0,0,1,1.872-.417Zm.1,5.2v-.26q-.052-.1-.416-.156a5.523,5.523,0,0,0-.78-.052h-3.588a4.984,4.984,0,0,0-.754.052q-.338.052-.39.156v19.24q.052.1.416.156a5.522,5.522,0,0,0,.78.052H206.6a4.985,4.985,0,0,0,.754-.052q.338-.052.39-.156V-31.1Zm24.544-5.2a1,1,0,0,1,.728.312,1,1,0,0,1,.312.728V-.936a1,1,0,0,1-.312.728,1,1,0,0,1-.728.312H228.9q-.312,0-.312-.052a1.785,1.785,0,0,0-.1-.338q-.1-.286-.26-.7l-8.008-21.32q-.364-.884-.364.1V-.936a1,1,0,0,1-.312.728,1,1,0,0,1-.728.312h-2.652a1,1,0,0,1-.728-.312,1,1,0,0,1-.312-.728v-34.32a1,1,0,0,1,.312-.728,1,1,0,0,1,.728-.312h2.756a1.559,1.559,0,0,1,.832.26,1.347,1.347,0,0,1,.572.676l7.9,20.956q.156.416.26.364t.1-.468v-20.8a1,1,0,0,1,.312-.728,1,1,0,0,1,.728-.312h2.652Z" transform="translate(0.03 36.452)" fill="#fff"/></svg>