<svg xmlns="http://www.w3.org/2000/svg" width="460.063" height="78.255" viewBox="0 0 460.063 78.255"><path d="M25.83-2.22a3.016,3.016,0,0,1-.923,1.554A2.23,2.23,0,0,1,23.37,0H16.808a2.23,2.23,0,0,1-1.538-.666,3.016,3.016,0,0,1-.923-1.554L0-75.591A1.772,1.772,0,0,1,.3-77.145a1.605,1.605,0,0,1,1.333-.666H7.069a2.23,2.23,0,0,1,1.538.666,3.016,3.016,0,0,1,.923,1.554L19.679-23.532q.205.888.41.888t.41-.888L30.854-75.591a3.016,3.016,0,0,1,.923-1.554,2.23,2.23,0,0,1,1.538-.666h5.434a1.605,1.605,0,0,1,1.333.666,1.772,1.772,0,0,1,.308,1.554l-5.946,29.97a10.083,10.083,0,0,0-.205,2.22,10.083,10.083,0,0,0,.205,2.22l3.486,17.649q.205.888.41.888t.41-.888L49.1-75.591a3.016,3.016,0,0,1,.923-1.554,2.23,2.23,0,0,1,1.538-.666H57a1.605,1.605,0,0,1,1.333.666,1.772,1.772,0,0,1,.308,1.554L44.079-2.22a3.015,3.015,0,0,1-.923,1.554A2.23,2.23,0,0,1,41.618,0H35.057a2.23,2.23,0,0,1-1.538-.666A3.016,3.016,0,0,1,32.6-2.22L29.726-17.094q-.205-.888-.41-.888t-.41.888L25.933-2.22ZM90.212-10.1a1.9,1.9,0,0,1,1.435.666,2.218,2.218,0,0,1,.615,1.554V-2.22a2.218,2.218,0,0,1-.615,1.554A1.9,1.9,0,0,1,90.212,0H67.248a1.9,1.9,0,0,1-1.435-.666A2.218,2.218,0,0,1,65.2-2.22V-7.881a2.218,2.218,0,0,1,.615-1.554,1.9,1.9,0,0,1,1.435-.666ZM84.471-77.478a8.007,8.007,0,0,1,3.691.89A9.8,9.8,0,0,1,91.186-74.2a11.93,11.93,0,0,1,2.05,3.5,11.99,11.99,0,0,1,.769,4.336v40.144a11.99,11.99,0,0,1-.769,4.336,11.929,11.929,0,0,1-2.05,3.5,9.8,9.8,0,0,1-3.024,2.391,8.007,8.007,0,0,1-3.691.89H73.194a8.007,8.007,0,0,1-3.691-.89,9.8,9.8,0,0,1-3.024-2.391,11.929,11.929,0,0,1-2.05-3.5,11.99,11.99,0,0,1-.769-4.336V-66.359a11.99,11.99,0,0,1,.769-4.336,11.929,11.929,0,0,1,2.05-3.5A9.8,9.8,0,0,1,69.5-76.588a8.007,8.007,0,0,1,3.691-.89Zm.205,11.1v-.555q-.1-.222-.82-.333a10.071,10.071,0,0,0-1.538-.111H75.244a9.089,9.089,0,0,0-1.487.111q-.666.111-.769.333v41.07q.1.222.82.333a10.07,10.07,0,0,0,1.538.111h7.074a9.09,9.09,0,0,0,1.487-.111q.666-.111.769-.333V-66.378Zm40.8,56.277a1.9,1.9,0,0,1,1.435.666,2.218,2.218,0,0,1,.615,1.554V-2.22a2.218,2.218,0,0,1-.615,1.554A1.9,1.9,0,0,1,125.479,0H102.515a1.9,1.9,0,0,1-1.435-.666,2.218,2.218,0,0,1-.615-1.554V-7.881a2.218,2.218,0,0,1,.615-1.554,1.9,1.9,0,0,1,1.435-.666Zm-5.741-67.377a8.007,8.007,0,0,1,3.691.89,9.8,9.8,0,0,1,3.024,2.391,11.93,11.93,0,0,1,2.05,3.5,11.989,11.989,0,0,1,.769,4.336v40.144a11.989,11.989,0,0,1-.769,4.336,11.929,11.929,0,0,1-2.05,3.5,9.8,9.8,0,0,1-3.024,2.391,8.007,8.007,0,0,1-3.691.89H108.461a8.007,8.007,0,0,1-3.691-.89,9.8,9.8,0,0,1-3.024-2.391,11.929,11.929,0,0,1-2.05-3.5,11.99,11.99,0,0,1-.769-4.336V-66.359a11.99,11.99,0,0,1,.769-4.336,11.929,11.929,0,0,1,2.05-3.5,9.8,9.8,0,0,1,3.024-2.391,8.007,8.007,0,0,1,3.691-.89Zm.205,11.1v-.555q-.1-.222-.82-.333a10.071,10.071,0,0,0-1.538-.111h-7.074a9.089,9.089,0,0,0-1.487.111q-.666.111-.769.333v41.07q.1.222.82.333a10.07,10.07,0,0,0,1.538.111h7.074a9.09,9.09,0,0,0,1.487-.111q.666-.111.769-.333V-66.378Zm39.983-11.211a9.39,9.39,0,0,1,4.255,1,10.82,10.82,0,0,1,3.486,2.775,13.944,13.944,0,0,1,2.358,4.107,14.149,14.149,0,0,1,.871,5v51.948a14.149,14.149,0,0,1-.871,5,13.945,13.945,0,0,1-2.358,4.107A10.82,10.82,0,0,1,164.18-.888a9.39,9.39,0,0,1-4.255,1H136.654a1.9,1.9,0,0,1-1.435-.666,2.218,2.218,0,0,1-.615-1.554v-73.26a2.218,2.218,0,0,1,.615-1.554,1.9,1.9,0,0,1,1.435-.666Zm1.64,13.1a3.3,3.3,0,0,0-.513-1.946,1.419,1.419,0,0,0-1.128-.723H145.983a1.9,1.9,0,0,0-1.435.667,2.224,2.224,0,0,0-.615,1.557v52.718a2.223,2.223,0,0,0,.615,1.557,1.9,1.9,0,0,0,1.435.667h13.943a1.419,1.419,0,0,0,1.128-.723,3.3,3.3,0,0,0,.513-1.946ZM186.888-.222a9.39,9.39,0,0,1-4.255-1A10.82,10.82,0,0,1,179.148-4,13.945,13.945,0,0,1,176.79-8.1a14.149,14.149,0,0,1-.871-4.995V-64.824a14.149,14.149,0,0,1,.871-4.995,13.945,13.945,0,0,1,2.358-4.107,10.82,10.82,0,0,1,3.486-2.775,9.39,9.39,0,0,1,4.255-1h14.353a9.39,9.39,0,0,1,4.255,1,10.82,10.82,0,0,1,3.486,2.775,13.944,13.944,0,0,1,2.358,4.107,14.148,14.148,0,0,1,.871,4.995v11.433a2.218,2.218,0,0,1-.615,1.554,1.9,1.9,0,0,1-1.435.666h-5.228a1.893,1.893,0,0,1-1.435-.67,2.242,2.242,0,0,1-.615-1.565V-64.918a3.331,3.331,0,0,0-.513-1.955,1.418,1.418,0,0,0-1.128-.727H186.888a1.419,1.419,0,0,0-1.128.724,3.315,3.315,0,0,0-.513,1.95V-13a3.315,3.315,0,0,0,.513,1.95,1.419,1.419,0,0,0,1.128.724h14.353a1.418,1.418,0,0,0,1.128-.728,3.342,3.342,0,0,0,.513-1.959v-7.839a2.248,2.248,0,0,1,.615-1.567,1.891,1.891,0,0,1,1.435-.672h5.228a1.9,1.9,0,0,1,1.435.666,2.218,2.218,0,0,1,.615,1.554v7.77a14.149,14.149,0,0,1-.871,4.995A13.944,13.944,0,0,1,208.981-4,10.82,10.82,0,0,1,205.5-1.221a9.39,9.39,0,0,1-4.255,1ZM252.6-1.551a1.449,1.449,0,0,1,.051,1.44,1.3,1.3,0,0,1-1.179.554h-6.529a3.209,3.209,0,0,1-1.709-.555,3.374,3.374,0,0,1-1.3-1.443l-10.457-21.09a3.47,3.47,0,0,0-1.23-1.443,2.91,2.91,0,0,0-1.64-.555,1.605,1.605,0,0,0-1.333.666,2.475,2.475,0,0,0-.513,1.554V-1.887a2.218,2.218,0,0,1-.615,1.554,1.9,1.9,0,0,1-1.435.666h-5.229a1.9,1.9,0,0,1-1.435-.665,2.213,2.213,0,0,1-.615-1.551V-75.039a2.21,2.21,0,0,1,.617-1.551,1.907,1.907,0,0,1,1.44-.665h19.333a10.9,10.9,0,0,1,4.628,1,12.442,12.442,0,0,1,3.8,2.716,12.573,12.573,0,0,1,2.571,3.991,12.946,12.946,0,0,1,.926,4.933v27.377a12.3,12.3,0,0,1-2.179,7.15,11.947,11.947,0,0,1-5.6,4.488,2,2,0,0,0-1.139,1,1.8,1.8,0,0,0,.1,1.551L252.6-1.773ZM241.428-64.6a2.4,2.4,0,0,0-.769-1.831,2.667,2.667,0,0,0-1.9-.721h-9.944a1.9,1.9,0,0,0-1.435.666,2.218,2.218,0,0,0-.615,1.554v28.083a2.218,2.218,0,0,0,.615,1.554,1.9,1.9,0,0,0,1.435.666h9.944a2.667,2.667,0,0,0,1.9-.722,2.4,2.4,0,0,0,.769-1.832Zm41.008,54.5a1.9,1.9,0,0,1,1.435.666,2.218,2.218,0,0,1,.615,1.554V-2.22a2.218,2.218,0,0,1-.615,1.554A1.9,1.9,0,0,1,282.436,0H259.472a1.9,1.9,0,0,1-1.435-.666,2.218,2.218,0,0,1-.615-1.554V-7.881a2.218,2.218,0,0,1,.615-1.554,1.9,1.9,0,0,1,1.435-.666ZM260.19-15.207a1.9,1.9,0,0,1-1.435-.666,2.218,2.218,0,0,1-.615-1.554V-75.369a2.218,2.218,0,0,1,.615-1.554,1.9,1.9,0,0,1,1.435-.666h19.684a1.9,1.9,0,0,1,1.435.666,2.218,2.218,0,0,1,.615,1.554v5.439a2.218,2.218,0,0,1-.615,1.554,1.9,1.9,0,0,1-1.435.666H269.519a1.9,1.9,0,0,0-1.435.666,2.218,2.218,0,0,0-.615,1.554v18.426a2.218,2.218,0,0,0,.615,1.554,1.9,1.9,0,0,0,1.435.666h4.921a1.9,1.9,0,0,1,1.435.666,2.218,2.218,0,0,1,.615,1.554v5.661a2.218,2.218,0,0,1-.615,1.554,1.9,1.9,0,0,1-1.435.666h-4.921a1.9,1.9,0,0,0-1.435.666,2.218,2.218,0,0,0-.615,1.554v5.106a2.218,2.218,0,0,0,.615,1.554,1.9,1.9,0,0,0,1.435.666h10.354a1.9,1.9,0,0,1,1.435.666,2.218,2.218,0,0,1,.615,1.554v5.661a2.218,2.218,0,0,1-.615,1.554,1.9,1.9,0,0,1-1.435.666H260.19Zm64.28,5.106a1.9,1.9,0,0,1,1.435.666,2.218,2.218,0,0,1,.615,1.554V-2.22A2.218,2.218,0,0,1,325.9-.666,1.9,1.9,0,0,1,324.469,0H291.458a1.9,1.9,0,0,1-1.435-.666,2.218,2.218,0,0,1-.615-1.554V-7.881a2.218,2.218,0,0,1,.615-1.554,1.9,1.9,0,0,1,1.435-.666ZM291.15-14.985a1.605,1.605,0,0,1-1.333-.666,1.772,1.772,0,0,1-.308-1.554l11.585-58.164a3.016,3.016,0,0,1,.923-1.554,2.23,2.23,0,0,1,1.538-.666h9.227a2.23,2.23,0,0,1,1.538.666,3.015,3.015,0,0,1,.923,1.554L326.622-17.2a1.772,1.772,0,0,1-.308,1.554,1.605,1.605,0,0,1-1.333.666h-5.434a2.23,2.23,0,0,1-1.538-.666,3.016,3.016,0,0,1-.923-1.554l-1.845-9.324a3.015,3.015,0,0,0-.923-1.554,2.23,2.23,0,0,0-1.538-.666H303.35a2.23,2.23,0,0,0-1.538.666,3.016,3.016,0,0,0-.923,1.554L299.044-17.2a3.016,3.016,0,0,1-.923,1.554,2.23,2.23,0,0,1-1.538.666Zm12.61-25.863a1.772,1.772,0,0,0,.308,1.554,1.605,1.605,0,0,0,1.333.666h5.434a1.605,1.605,0,0,0,1.333-.666,1.772,1.772,0,0,0,.308-1.554l-3.9-19.98q-.205-.888-.41-.888t-.41.888ZM362.914-10.1a1.9,1.9,0,0,1,1.435.666,2.218,2.218,0,0,1,.615,1.554V-2.22a2.218,2.218,0,0,1-.615,1.554A1.9,1.9,0,0,1,362.914,0H339.95a1.9,1.9,0,0,1-1.435-.666A2.218,2.218,0,0,1,337.9-2.22V-7.881a2.218,2.218,0,0,1,.615-1.554,1.9,1.9,0,0,1,1.435-.666Zm4-67.377a1.9,1.9,0,0,1,1.435.666,2.218,2.218,0,0,1,.615,1.554V-69.6a2.218,2.218,0,0,1-.615,1.554,1.9,1.9,0,0,1-1.435.666h-9.739a1.9,1.9,0,0,0-1.435.666,2.218,2.218,0,0,0-.615,1.554V-17.2a2.218,2.218,0,0,1-.615,1.554,1.9,1.9,0,0,1-1.435.666h-5.229a1.9,1.9,0,0,1-1.435-.666,2.218,2.218,0,0,1-.615-1.554V-65.157a2.218,2.218,0,0,0-.615-1.554,1.9,1.9,0,0,0-1.435-.666H334a1.9,1.9,0,0,1-1.435-.666,2.218,2.218,0,0,1-.615-1.554v-5.661a2.218,2.218,0,0,1,.615-1.554A1.9,1.9,0,0,1,334-77.478h32.909Zm14.66,0a1.9,1.9,0,0,1,1.435.666,2.218,2.218,0,0,1,.615,1.554V-2.109a2.218,2.218,0,0,1-.615,1.554,1.9,1.9,0,0,1-1.435.666h-5.228a1.9,1.9,0,0,1-1.435-.666,2.218,2.218,0,0,1-.615-1.554V-75.258a2.218,2.218,0,0,1,.615-1.554,1.9,1.9,0,0,1,1.435-.666ZM415.1-10.1a1.9,1.9,0,0,1,1.435.666,2.218,2.218,0,0,1,.615,1.554V-2.22a2.218,2.218,0,0,1-.615,1.554A1.9,1.9,0,0,1,415.1,0H392.132A1.9,1.9,0,0,1,390.7-.666a2.218,2.218,0,0,1-.615-1.554V-7.881a2.218,2.218,0,0,1,.615-1.554,1.9,1.9,0,0,1,1.435-.666Zm-5.741-67.377a8.007,8.007,0,0,1,3.691.89A9.8,9.8,0,0,1,416.07-74.2a11.929,11.929,0,0,1,2.05,3.5,11.989,11.989,0,0,1,.769,4.336v40.144a11.989,11.989,0,0,1-.769,4.336,11.929,11.929,0,0,1-2.05,3.5,9.8,9.8,0,0,1-3.024,2.391,8.007,8.007,0,0,1-3.691.89H398.078a8.007,8.007,0,0,1-3.691-.89,9.8,9.8,0,0,1-3.024-2.391,11.929,11.929,0,0,1-2.05-3.5,11.989,11.989,0,0,1-.769-4.336V-66.359a11.989,11.989,0,0,1,.769-4.336,11.929,11.929,0,0,1,2.05-3.5,9.8,9.8,0,0,1,3.024-2.391,8.007,8.007,0,0,1,3.691-.89Zm.205,11.1v-.555q-.1-.222-.82-.333a10.07,10.07,0,0,0-1.538-.111h-7.074a9.089,9.089,0,0,0-1.487.111q-.666.111-.769.333v41.07q.1.222.82.333a10.07,10.07,0,0,0,1.538.111h7.074a9.09,9.09,0,0,0,1.487-.111q.666-.111.769-.333V-66.378Zm48.389-11.1a1.9,1.9,0,0,1,1.435.666A2.218,2.218,0,0,1,460-75.258V-2a2.218,2.218,0,0,1-.615,1.554,1.9,1.9,0,0,1-1.435.666h-6.664q-.615,0-.615-.111a4.053,4.053,0,0,0-.205-.722q-.205-.61-.513-1.5l-15.788-45.51q-.718-1.887-.718.222V-2a2.218,2.218,0,0,1-.615,1.554A1.9,1.9,0,0,1,431.4.222h-5.229a1.9,1.9,0,0,1-1.435-.666A2.218,2.218,0,0,1,424.118-2v-73.26a2.218,2.218,0,0,1,.615-1.554,1.9,1.9,0,0,1,1.435-.666H431.6a2.911,2.911,0,0,1,1.64.555,2.83,2.83,0,0,1,1.128,1.443l15.583,44.733q.308.888.513.777t.205-1v-44.4a2.218,2.218,0,0,1,.615-1.554,1.9,1.9,0,0,1,1.435-.666h5.228Z" transform="translate(0.063 77.811)" fill="#70a165"/></svg>